<svg xmlns="http://www.w3.org/2000/svg" viewBox="0 0 312.88 71.61"><defs><style>.cls-1{fill:#fff;}.cls-2{fill:#cb8d2b;}.cls-3{fill:none;stroke:#fff;stroke-linecap:square;stroke-miterlimit:10;stroke-width:4px;}</style></defs><g id="Layer_2" data-name="Layer 2"><g id="Layer_1-2" data-name="Layer 1"><path class="cls-1" d="M178.85,45.53h-2V31h4.35c3.52,0,5.35,1.67,5.35,4.25a4.21,4.21,0,0,1-3.28,4.19l3.94,6.1h-2.35l-3.54-5.77-2.49.16Zm2.4-7.42c1.9-.07,3.35-1,3.35-2.77S183.2,32.8,181,32.8h-2.14v5.38Z"/><path class="cls-1" d="M193.9,45.65l-.72,1.9c-1,2.7-2.09,3.52-3.74,3.52a5.31,5.31,0,0,1-2.26-.56l.56-1.77a4,4,0,0,0,1.7.51c.81,0,1.32-.44,2-2.3l.66-1.65L188,34.87h2l3.1,8.29,3-8.29h2Z"/><path class="cls-1" d="M205.31,44.39a3.81,3.81,0,0,1-2.93,1.49,3.14,3.14,0,0,1-3.4-3.05c0-1.91,1.37-3.58,6.35-3.82v-.3c0-1.72-.67-2.42-2.4-2.42a6.69,6.69,0,0,0-3.44,1.19l-.37-1.72a7.49,7.49,0,0,1,4-1.24c2.89,0,4.16,1.24,4.12,4.15v4.46c0,.89.11,1,1,1l-.12,1.61c-1.72.14-2.49-.47-2.77-1.4Zm0-4.17c-3.16.42-4.33,1.07-4.33,2.38a1.69,1.69,0,0,0,1.89,1.65,3.4,3.4,0,0,0,2.44-1.14Z"/><path class="cls-1" d="M217.27,45.53v-6.7c0-1.84-.7-2.47-2.21-2.47a4.27,4.27,0,0,0-2.8,1.17v8h-1.9V34.83l1.9-.31v1.61a5.09,5.09,0,0,1,3.47-1.61c2.17,0,3.44,1.38,3.44,3.68v7.33Z"/><path class="cls-1" d="M235,41.67c0-1.49-1.11-2.05-3.49-2.68-2.07-.56-4.35-1.44-4.35-4.26,0-2.44,2-4.09,4.86-4.09a8.55,8.55,0,0,1,4.59,1.28l-.7,1.72A7.23,7.23,0,0,0,232,32.43c-2.1,0-3,1-3,2.16,0,1.47,1.23,2,3.54,2.61,2.12.56,4.28,1.58,4.28,4.33,0,2.51-2.07,4.35-5.12,4.35a9.3,9.3,0,0,1-4.86-1.37l.65-1.8a7.41,7.41,0,0,0,4.26,1.4C233.63,44.11,235,43.11,235,41.67Z"/><path class="cls-1" d="M242.75,45.88c-2.07,0-3.17-1-3.1-3.33l.17-6-1.77-.11.07-1.21,1.76-.54.05-2.3h1.84l-.07,2.44H245L245,36.59h-3.33l-.16,6c0,1,.44,1.51,1.39,1.51a5.63,5.63,0,0,0,1.93-.39s.35,1.67.35,1.67A6.56,6.56,0,0,1,242.75,45.88Z"/><path class="cls-1" d="M248.54,40.53a3.46,3.46,0,0,0,3.51,3.58,5.93,5.93,0,0,0,3.19-.88l.35,1.76a6.89,6.89,0,0,1-3.58.89,5.24,5.24,0,0,1-5.4-5.56c0-3.45,2.28-5.8,5.26-5.8a3.8,3.8,0,0,1,4.07,4.17,6.41,6.41,0,0,1-.23,1.7l-7.17,0ZM254.1,39v-.16c0-1.58-.74-2.63-2.42-2.63A3.1,3.1,0,0,0,248.63,39Z"/><path class="cls-1" d="M265.39,45.53v-6.7c0-1.84-.7-2.47-2.21-2.47a4.22,4.22,0,0,0-2.79,1.17v8h-1.91V34.83l1.91-.31v1.61a5,5,0,0,1,3.46-1.61c2.17,0,3.45,1.38,3.45,3.68v7.33Z"/><path class="cls-1" d="M274.72,45.88a9,9,0,0,1-2.3-.35l-1.91.35v-16l1.91-.31v6.31a4.27,4.27,0,0,1,3-1.33c3,0,4.75,2.42,4.75,5.63A5.41,5.41,0,0,1,274.72,45.88Zm.28-9.59a3.86,3.86,0,0,0-2.58,1v6.07a3.67,3.67,0,0,0,2.37.77c2.16,0,3.37-1.77,3.37-4C278.16,37.85,277,36.29,275,36.29Z"/><path class="cls-1" d="M287.12,45.88c-3,0-5.14-2.23-5.14-5.68s2.19-5.7,5.26-5.7,5.12,2.26,5.12,5.7S290.12,45.88,287.12,45.88Zm0-9.66c-2.12,0-3.29,1.65-3.29,4s1.24,4,3.33,4,3.28-1.63,3.28-3.94S289.24,36.22,287.15,36.22Z"/><path class="cls-1" d="M296.87,45.53H295V34.83l1.91-.31v1.89a3.38,3.38,0,0,1,3-1.89,3.84,3.84,0,0,1,2,.54l-.49,1.79a3.26,3.26,0,0,0-1.7-.49c-1,0-2,.75-2.79,2.21Z"/><path class="cls-1" d="M303,43.9a2.36,2.36,0,0,1,1.77-2.07A3.62,3.62,0,0,1,303,38.55a4,4,0,0,1,4.33-4,6.74,6.74,0,0,1,2.75.61l2.74-.26.07,1.89-2.05-.37a3.43,3.43,0,0,1,.73,2.18,4,4,0,0,1-4.26,3.91,4.69,4.69,0,0,1-1.49-.25c-.44.16-1.05.58-1.05,1.11s.42,1,2.42,1h1c3.19,0,4.65,1,4.65,2.87,0,2.35-2.53,4.09-5.75,4.09-2.81,0-4.95-1.21-4.95-3.12a2.53,2.53,0,0,1,2.28-2.49A2,2,0,0,1,303,43.9Zm1,3.86c0,1.14,1.35,2,3.38,2s3.58-.86,3.58-2.16-1.05-1.44-3.19-1.44c-.67,0-1.46,0-1.93-.1C304.76,46.34,304,47,304,47.76Zm3.4-6.81a2.25,2.25,0,0,0,2.28-2.49,2.22,2.22,0,0,0-2.44-2.4,2.45,2.45,0,0,0,.16,4.89Z"/><path class="cls-2" d="M181.27,66.57h-.79L176.87,53.9h.87l3.19,11.36L184.4,53.9h1.07L189,65.26l3-11.36h.89l-3.5,12.67h-.8l-3.67-11.76Z"/><path class="cls-2" d="M194.76,61.93c0,2.35,1.3,4.08,3.43,4.08a4.87,4.87,0,0,0,2.6-.77L201,66a5.34,5.34,0,0,1-2.84.79c-2.54,0-4.22-2-4.22-4.81s1.72-4.89,4.16-4.89a3.06,3.06,0,0,1,3.22,3.21,7,7,0,0,1-.2,1.46l-6.33,0Zm5.62-.89a4.11,4.11,0,0,0,.06-.69,2.31,2.31,0,0,0-2.39-2.5c-1.73,0-2.94,1.3-3.23,3.19Z"/><path class="cls-2" d="M207.2,66.78a5.23,5.23,0,0,1-2.54-.71l-.81.79v-14l.83-.24v5.74a4.59,4.59,0,0,1,3-1.2c2.29,0,4,1.79,4,4.53C211.66,64.77,209.77,66.78,207.2,66.78Zm.32-8.85a4.13,4.13,0,0,0-2.84,1.18v6.15a4.66,4.66,0,0,0,2.58.77c2.09,0,3.55-1.65,3.55-4.24C210.81,59.64,209.51,57.93,207.52,57.93Z"/><path class="cls-2" d="M221.7,66.57h-2.94V53.9h3.06c4.1,0,6.71,2.55,6.71,6.24C228.53,64.24,226,66.57,221.7,66.57Zm0-11.9h-2.13V65.8h2.13c3.47,0,5.92-1.72,5.92-5.57C227.66,56.88,225.45,54.67,221.74,54.67Z"/><path class="cls-2" d="M231.23,61.93c0,2.35,1.3,4.08,3.43,4.08a4.81,4.81,0,0,0,2.59-.77l.19.75a5.34,5.34,0,0,1-2.84.79c-2.54,0-4.22-2-4.22-4.81s1.72-4.89,4.16-4.89a3.06,3.06,0,0,1,3.22,3.21,7,7,0,0,1-.2,1.46l-6.33,0Zm5.62-.89a4.11,4.11,0,0,0,.06-.69,2.31,2.31,0,0,0-2.39-2.5c-1.73,0-2.94,1.3-3.23,3.19Z"/><path class="cls-2" d="M242.35,66.78a5.46,5.46,0,0,1-2.82-.79l.26-.77a4.86,4.86,0,0,0,2.6.83c1.17,0,2.35-.63,2.35-1.81,0-1.34-1.24-1.66-2.48-2.09s-2.61-1-2.61-2.55,1.32-2.52,2.92-2.52a6.13,6.13,0,0,1,2.64.67l-.29.75a5,5,0,0,0-2.43-.71c-1.26,0-2.09.67-2.09,1.71,0,1.21,1.22,1.58,2.43,2s2.66,1,2.66,2.68S244.07,66.78,242.35,66.78Z"/><path class="cls-2" d="M248.31,55.07a.61.61,0,0,1-.59-.65.59.59,0,0,1,.59-.6.61.61,0,0,1,.61.6A.63.63,0,0,1,248.31,55.07Zm-.41,11.5V57.35l.84-.27v9.49Z"/><path class="cls-2" d="M251.17,65.07c0-.79.75-1.38,1.5-1.72a3.42,3.42,0,0,1-1.44-2.8,3.35,3.35,0,0,1,3.51-3.47,3.6,3.6,0,0,1,2,.55l2.76-.16.06.85-2.32-.1a3.51,3.51,0,0,1,.88,2.27,3.33,3.33,0,0,1-3.53,3.43,3.6,3.6,0,0,1-1.44-.31c-.59.29-1.16.69-1.16,1.28s.53,1,2.09,1h1.54c2.62,0,3.67,1,3.67,2.37,0,2-2.39,3.31-4.76,3.31-2.56,0-4.08-1.16-4.08-2.7a2.84,2.84,0,0,1,2-2.46C251.7,66.23,251.17,65.76,251.17,65.07Zm.06,3.76c0,1.19,1.22,2.09,3.39,2.09s3.89-1.14,3.89-2.52c0-1.2-1.05-1.7-2.88-1.7-.65,0-1.56,0-2.21,0A2.59,2.59,0,0,0,251.23,68.83Zm3.43-5.58a2.55,2.55,0,0,0,2.63-2.72,2.53,2.53,0,0,0-2.61-2.76,2.74,2.74,0,0,0,0,5.48Z"/><path class="cls-2" d="M267.33,66.57V60.41c0-1.64-.69-2.56-2.19-2.56a4.74,4.74,0,0,0-3.2,1.61v7.11h-.83V57.35l.83-.27V58.7a5.1,5.1,0,0,1,3.31-1.62c1.82,0,2.92,1.1,2.92,3.15v6.34Z"/><path class="cls-2" d="M271.33,61.93c0,2.35,1.3,4.08,3.43,4.08a4.81,4.81,0,0,0,2.59-.77l.19.75a5.34,5.34,0,0,1-2.84.79c-2.54,0-4.22-2-4.22-4.81s1.72-4.89,4.16-4.89a3.06,3.06,0,0,1,3.22,3.21,7,7,0,0,1-.2,1.46l-6.33,0ZM277,61a4.11,4.11,0,0,0,.06-.69,2.31,2.31,0,0,0-2.39-2.5c-1.73,0-2.94,1.3-3.23,3.19Z"/><path class="cls-2" d="M281.25,66.57h-.83V57.35l.83-.27v2.31a3,3,0,0,1,4.38-1.92l-.24.75a2.69,2.69,0,0,0-1.36-.37c-1.06,0-2,.79-2.78,2.88Z"/><polyline class="cls-3" points="2 2.03 2 64.18 65.33 64.18"/><polyline class="cls-3" points="21.89 10.71 75.36 10.71 75.36 64.18"/><polyline class="cls-3" points="139.08 64.18 139.08 10.71 85.11 10.71 85.11 64.18 152.37 64.18"/><path class="cls-3" d="M11.28,54.13V2h125.8"/><rect class="cls-2" x="144.2" width="4.06" height="4.06"/></g></g></svg>