<svg xmlns="http://www.w3.org/2000/svg" viewBox="0 0 71.26 57.46"><defs><style>.cls-1{fill:none;stroke:#fff;stroke-linecap:square;stroke-miterlimit:10;stroke-width:4px;}.cls-2{fill:#cb8d2b;}.cls-3{fill:#fff;}</style></defs><g id="Layer_2" data-name="Layer 2"><g id="Layer_1-2" data-name="Layer 1"><polyline class="cls-1" points="55.97 55.46 55.97 2 2 2 2 55.46 69.26 55.46"/><rect class="cls-2" x="62" y="42.81" width="7.01" height="7.01"/><path class="cls-3" d="M11.72,44.19H7.52V13.28h9.25c7.46,0,11.37,3.56,11.37,9,0,4.65-2.72,7.52-7,8.9l8.36,13h-5L17,31.92l-5.29.35Zm5.1-15.78c4.05-.15,7.12-2.08,7.12-5.88s-3-5.39-7.67-5.39H11.72V28.56Z"/><path class="cls-3" d="M46.69,36c0-3.17-2.38-4.36-7.42-5.69-4.4-1.19-9.25-3.07-9.25-9,0-5.19,4.2-8.7,10.34-8.7a18.1,18.1,0,0,1,9.74,2.72l-1.49,3.66a15.38,15.38,0,0,0-8.2-2.58c-4.46,0-6.29,2-6.29,4.6,0,3.12,2.63,4.21,7.52,5.54,4.5,1.19,9.1,3.37,9.1,9.2,0,5.34-4.4,9.25-10.88,9.25A19.71,19.71,0,0,1,29.53,42l1.38-3.81a15.84,15.84,0,0,0,9.05,3C43.87,41.17,46.69,39,46.69,36Z"/></g></g></svg>